HIERARCHY
ROOT Hips
{
	OFFSET 0.000000 97.167313 0.000000
	CHANNELS 6 Xposition Yposition Zposition Xrotation Yrotation Zrotation
	JOINT Spine
	{
		OFFSET 0.000000 13.784798 0.064400
		CHANNELS 3 Xrotation Yrotation Zrotation
		JOINT Spine1
		{
			OFFSET 0.000000 12.037903 0.404700
			CHANNELS 3 Xrotation Yrotation Zrotation
			JOINT Spine2
			{
				OFFSET 0.000000 17.795601 0.420200
				CHANNELS 3 Xrotation Yrotation Zrotation
				JOINT Neck
				{
					OFFSET 0.000000 39.131302 11.954600
					CHANNELS 3 Xrotation Yrotation Zrotation
					JOINT Head
					{
						OFFSET 0.000000 14.456192 15.627699
						CHANNELS 3 Xrotation Yrotation Zrotation
						JOINT HeadTop_End
						{
							OFFSET 0.000000 15.703506 7.603401
							CHANNELS 3 Xrotation Yrotation Zrotation
							End Site
							{
								OFFSET 0.000000 17.447403 0.000000
							}
						}
					}
				}
				JOINT LeftShoulder
				{
					OFFSET 17.399500 24.608795 1.168800
					CHANNELS 3 Xrotation Yrotation Zrotation
					JOINT LeftArm
					{
						OFFSET 18.980635 5.765305 1.818600
						CHANNELS 3 Xrotation Yrotation Zrotation
						JOINT LeftForeArm
						{
							OFFSET 49.290169 0.000000 0.000000
							CHANNELS 3 Xrotation Yrotation Zrotation
							JOINT LeftHand
							{
								OFFSET 31.562012 0.000000 0.000000
								CHANNELS 3 Xrotation Yrotation Zrotation
								JOINT LeftHandThumb1
								{
									OFFSET 6.133995 -4.388519 7.076070
									CHANNELS 3 Xrotation Yrotation Zrotation
									JOINT LeftHandThumb2
									{
										OFFSET 6.037666 -3.485840 3.485847
										CHANNELS 3 Xrotation Yrotation Zrotation
										JOINT LeftHandThumb3
										{
											OFFSET 6.496506 -3.750763 3.750761
											CHANNELS 3 Xrotation Yrotation Zrotation
											JOINT LeftHandThumb4
											{
												OFFSET 5.616882 -3.242905 3.242910
												CHANNELS 3 Xrotation Yrotation Zrotation
												End Site
												{
													OFFSET -1.254608 7.132141 0.375429
												}
											}
										}
									}
								}
								JOINT LeftHandPinky1
								{
									OFFSET 18.920792 -0.453171 -11.426712
									CHANNELS 3 Xrotation Yrotation Zrotation
									JOINT LeftHandPinky2
									{
										OFFSET 4.919586 0.000000 0.000000
										CHANNELS 3 Xrotation Yrotation Zrotation
										JOINT LeftHandPinky3
										{
											OFFSET 5.233047 0.000000 0.000000
											CHANNELS 3 Xrotation Yrotation Zrotation
											JOINT LeftHandPinky4
											{
												OFFSET 5.571716 0.000000 0.000000
												CHANNELS 3 Xrotation Yrotation Zrotation
												End Site
												{
													OFFSET -3.459808 4.342407 -0.466164
												}
											}
										}
									}
								}
								JOINT LeftHandRing1
								{
									OFFSET 22.726120 -0.094986 -6.500475
									CHANNELS 3 Xrotation Yrotation Zrotation
									JOINT LeftHandRing2
									{
										OFFSET 6.408615 0.000000 0.000000
										CHANNELS 3 Xrotation Yrotation Zrotation
										JOINT LeftHandRing3
										{
											OFFSET 6.150223 0.000000 0.000000
											CHANNELS 3 Xrotation Yrotation Zrotation
											JOINT LeftHandRing4
											{
												OFFSET 6.145386 0.000000 0.000000
												CHANNELS 3 Xrotation Yrotation Zrotation
												End Site
												{
													OFFSET -3.671402 4.923981 -0.202372
												}
											}
										}
									}
								}
								JOINT LeftHandMiddle1
								{
									OFFSET 23.373947 0.000000 0.000001
									CHANNELS 3 Xrotation Yrotation Zrotation
									JOINT LeftHandMiddle2
									{
										OFFSET 6.996567 0.000000 0.000000
										CHANNELS 3 Xrotation Yrotation Zrotation
										JOINT LeftHandMiddle3
										{
											OFFSET 7.015945 0.000000 0.000000
											CHANNELS 3 Xrotation Yrotation Zrotation
											JOINT LeftHandMiddle4
											{
												OFFSET 7.721573 0.000000 0.000000
												CHANNELS 3 Xrotation Yrotation Zrotation
												End Site
												{
													OFFSET -4.651108 6.158463 0.251582
												}
											}
										}
									}
								}
								JOINT LeftHandIndex1
								{
									OFFSET 21.310577 -0.490082 6.209344
									CHANNELS 3 Xrotation Yrotation Zrotation
									JOINT LeftHandIndex2
									{
										OFFSET 7.536453 0.000000 0.000000
										CHANNELS 3 Xrotation Yrotation Zrotation
										JOINT LeftHandIndex3
										{
											OFFSET 7.512344 0.000000 0.000000
											CHANNELS 3 Xrotation Yrotation Zrotation
											JOINT LeftHandIndex4
											{
												OFFSET 10.212402 0.000000 0.000001
												CHANNELS 3 Xrotation Yrotation Zrotation
												End Site
												{
													OFFSET -5.180801 8.690506 1.388433
												}
											}
										}
									}
								}
							}
						}
					}
				}
				JOINT RightShoulder
				{
					OFFSET -17.399500 24.608795 1.168800
					CHANNELS 3 Xrotation Yrotation Zrotation
					JOINT RightArm
					{
						OFFSET -18.980635 5.765305 1.818600
						CHANNELS 3 Xrotation Yrotation Zrotation
						JOINT RightForeArm
						{
							OFFSET -49.290169 0.000000 0.000000
							CHANNELS 3 Xrotation Yrotation Zrotation
							JOINT RightHand
							{
								OFFSET -31.562012 0.000000 0.000000
								CHANNELS 3 Xrotation Yrotation Zrotation
								JOINT RightHandThumb1
								{
									OFFSET -6.133995 -4.388519 7.076070
									CHANNELS 3 Xrotation Yrotation Zrotation
									JOINT RightHandThumb2
									{
										OFFSET -6.037666 -3.485840 3.485847
										CHANNELS 3 Xrotation Yrotation Zrotation
										JOINT RightHandThumb3
										{
											OFFSET -6.496506 -3.750763 3.750761
											CHANNELS 3 Xrotation Yrotation Zrotation
											JOINT RightHandThumb4
											{
												OFFSET -5.616882 -3.242905 3.242910
												CHANNELS 3 Xrotation Yrotation Zrotation
												End Site
												{
													OFFSET 1.254608 7.132141 0.375429
												}
											}
										}
									}
								}
								JOINT RightHandIndex1
								{
									OFFSET -21.310577 -0.490082 6.209344
									CHANNELS 3 Xrotation Yrotation Zrotation
									JOINT RightHandIndex2
									{
										OFFSET -7.536453 0.000000 0.000000
										CHANNELS 3 Xrotation Yrotation Zrotation
										JOINT RightHandIndex3
										{
											OFFSET -7.512344 0.000000 0.000000
											CHANNELS 3 Xrotation Yrotation Zrotation
											JOINT RightHandIndex4
											{
												OFFSET -10.212402 0.000000 0.000001
												CHANNELS 3 Xrotation Yrotation Zrotation
												End Site
												{
													OFFSET 5.180801 8.690506 1.388433
												}
											}
										}
									}
								}
								JOINT RightHandMiddle1
								{
									OFFSET -23.373947 0.000000 0.000001
									CHANNELS 3 Xrotation Yrotation Zrotation
									JOINT RightHandMiddle2
									{
										OFFSET -6.996567 0.000000 0.000000
										CHANNELS 3 Xrotation Yrotation Zrotation
										JOINT RightHandMiddle3
										{
											OFFSET -7.015945 0.000000 0.000000
											CHANNELS 3 Xrotation Yrotation Zrotation
											JOINT RightHandMiddle4
											{
												OFFSET -7.721573 0.000000 0.000000
												CHANNELS 3 Xrotation Yrotation Zrotation
												End Site
												{
													OFFSET 4.651108 6.158463 0.251582
												}
											}
										}
									}
								}
								JOINT RightHandRing1
								{
									OFFSET -22.726120 -0.094986 -6.500475
									CHANNELS 3 Xrotation Yrotation Zrotation
									JOINT RightHandRing2
									{
										OFFSET -6.408615 0.000000 0.000000
										CHANNELS 3 Xrotation Yrotation Zrotation
										JOINT RightHandRing3
										{
											OFFSET -6.150223 0.000000 0.000000
											CHANNELS 3 Xrotation Yrotation Zrotation
											JOINT RightHandRing4
											{
												OFFSET -6.145386 0.000000 0.000000
												CHANNELS 3 Xrotation Yrotation Zrotation
												End Site
												{
													OFFSET 3.671402 4.923981 -0.202372
												}
											}
										}
									}
								}
								JOINT RightHandPinky1
								{
									OFFSET -18.920792 -0.453171 -11.426712
									CHANNELS 3 Xrotation Yrotation Zrotation
									JOINT RightHandPinky2
									{
										OFFSET -4.919586 0.000000 0.000000
										CHANNELS 3 Xrotation Yrotation Zrotation
										JOINT RightHandPinky3
										{
											OFFSET -5.233047 0.000000 0.000000
											CHANNELS 3 Xrotation Yrotation Zrotation
											JOINT RightHandPinky4
											{
												OFFSET -5.571716 0.000000 0.000000
												CHANNELS 3 Xrotation Yrotation Zrotation
												End Site
												{
													OFFSET 3.459808 4.342407 -0.466164
												}
											}
										}
									}
								}
							}
						}
					}
				}
			}
		}
	}
	JOINT LeftUpLeg
	{
		OFFSET 19.899099 -7.885101 -3.429500
		CHANNELS 3 Xrotation Yrotation Zrotation
		JOINT LeftLeg
		{
			OFFSET 1.745560 -36.997807 10.304700
			CHANNELS 3 Xrotation Yrotation Zrotation
			JOINT LeftFoot
			{
				OFFSET -1.745558 -29.803308 -13.615400
				CHANNELS 3 Xrotation Yrotation Zrotation
				JOINT LeftToeBase
				{
					OFFSET 1.181900 -18.539904 15.226099
					CHANNELS 3 Xrotation Yrotation Zrotation
					JOINT LeftToe_End
					{
						OFFSET -0.863701 1.402801 16.534700
						CHANNELS 3 Xrotation Yrotation Zrotation
						End Site
						{
							OFFSET 0.000000 16.616566 0.000000
						}
					}
				}
			}
		}
	}
	JOINT RightUpLeg
	{
		OFFSET -19.899099 -7.885101 -3.429500
		CHANNELS 3 Xrotation Yrotation Zrotation
		JOINT RightLeg
		{
			OFFSET -1.745560 -36.997807 10.304700
			CHANNELS 3 Xrotation Yrotation Zrotation
			JOINT RightFoot
			{
				OFFSET 1.745558 -29.803308 -13.615400
				CHANNELS 3 Xrotation Yrotation Zrotation
				JOINT RightToeBase
				{
					OFFSET -1.181900 -18.539904 15.226099
					CHANNELS 3 Xrotation Yrotation Zrotation
					JOINT RightToe_End
					{
						OFFSET 0.863701 1.402801 16.534700
						CHANNELS 3 Xrotation Yrotation Zrotation
						End Site
						{
							OFFSET 0.000000 16.616566 0.000000
						}
					}
				}
			}
		}
	}
}
MOTION
Frames: 4
Frame Time: 0.033333
36.597099 99.504288 54.479904 -32.434618 -259.000965 -338.074256 17.864268 -3.229675 -0.291666 3.360075 -0.759279 0.504852 3.356471 -0.778257 0.541965 -3.589652 2.204187 -2.152430 -3.650137 16.900632 -14.846396 -0.000000 -0.000002 0.000000 0.599549 -2.865596 -11.826242 -4.024798 -66.547079 -42.959373 0.000516 -83.281384 0.000506 31.124492 -32.544987 24.384907 -80.654740 52.882125 -30.399239 4.172767 -0.290664 44.843692 -17.739130 9.017797 23.172390 0.000002 -0.000001 -0.000002 4.345674 9.457684 -45.217679 0.329663 1.939289 -19.293886 1.842744 4.265932 -46.710018 -0.000003 -0.000002 -0.000001 0.788715 5.217445 -33.523047 0.933422 3.174354 -32.764790 0.607958 2.600699 -26.311130 -0.000002 -0.000002 0.000005 -0.214463 2.505069 -18.777920 0.890431 3.106607 -31.979875 0.576379 2.535875 -25.606299 0.000000 -0.000002 0.000004 5.360003 -9.213398 -13.588558 0.254480 1.709556 -16.932835 0.255656 1.713391 -16.971922 -0.000001 -0.000000 -0.000001 0.590243 7.270093 9.623840 27.748327 24.560780 31.046584 0.000528 87.234575 -0.000440 2.329494 9.822603 -6.240674 -91.021683 -42.006176 11.107307 -11.164291 -19.622485 -37.363822 -16.862958 -2.822082 -22.027095 0.000001 0.000001 0.000003 3.141065 6.477360 28.383111 0.524996 -2.149975 27.441641 0.266983 -1.555701 19.474828 -0.000000 -0.000003 -0.000002 0.011739 -3.512460 30.971527 1.490473 -3.416595 47.127803 0.941029 -2.809037 37.035997 0.000002 0.000001 -0.000006 -0.390558 -3.544063 41.381343 1.637536 -3.547199 49.548815 1.129360 -3.042294 40.724562 -0.000000 0.000001 -0.000001 -0.006492 -4.714014 55.623742 1.406822 -3.337123 45.707930 2.193781 -3.953565 58.037586 0.000003 0.000000 0.000004 -37.465439 8.555332 10.227348 55.205424 5.802803 -6.883730 4.338877 2.426798 -3.073371 6.915580 0.000004 0.000000 0.000003 -0.000002 0.000002 -43.092428 0.741594 -1.589792 39.005472 4.639643 -2.827538 27.649518 2.167072 9.132047 6.319288 0.000015 -0.000015 -0.000002 0.000001 -0.000001 
39.459835 100.740685 55.035965 -22.741771 -252.574221 -348.353554 17.614153 -2.742837 -0.622955 3.314350 -0.662419 0.437548 3.311571 -0.685146 0.470915 -3.646023 2.178824 -2.362703 -4.215457 16.206874 -15.564201 -0.000000 -0.000001 0.000002 0.598267 -2.969118 -11.982944 -2.170024 -67.378990 -38.758605 0.000640 -84.166659 0.000646 33.020437 -33.088909 25.067967 -81.522693 53.057521 -29.374632 2.564905 1.237951 44.314387 -17.748646 7.892442 22.964708 0.000005 -0.000002 -0.000003 4.181182 9.049961 -47.402121 0.440880 2.231524 -22.349421 1.994533 4.403578 -48.718001 -0.000002 0.000002 -0.000005 0.736131 5.169668 -35.171369 1.071495 3.378920 -35.180095 0.695073 2.769726 -28.170308 -0.000001 0.000002 0.000003 -0.202947 2.711331 -20.606472 1.011965 3.293007 -34.156997 0.647103 2.678323 -27.160906 0.000001 -0.000001 0.000006 5.096305 -9.155460 -15.591377 0.297058 1.843511 -18.305653 0.269018 1.756548 -17.413207 0.000002 0.000003 -0.000001 0.591029 7.207796 9.599152 26.982859 24.518354 30.372314 -0.001482 91.797080 0.001523 0.794887 10.248304 -6.070696 -90.293687 -41.670667 11.399136 -9.319762 -18.414129 -35.712242 -16.710425 -3.038556 -21.011829 0.000002 -0.000001 0.000001 3.329916 6.518549 26.047123 0.463536 -2.027283 25.755178 0.253536 -1.517132 18.973057 0.000001 -0.000003 -0.000001 -0.044154 -3.287226 28.338054 1.315791 -3.245965 44.122476 0.832129 -2.658731 34.753058 0.000001 0.000001 -0.000006 -0.278448 -3.504833 38.588834 1.413617 -3.343714 45.824289 0.976150 -2.854915 37.746696 0.000001 -0.000001 -0.000003 0.411544 -4.847903 51.920509 1.200173 -3.122534 42.041160 1.959361 -3.797587 54.570087 -0.000000 0.000000 0.000000 -38.501722 9.196348 12.472698 55.399910 2.903792 -8.379125 -1.069817 1.287505 -7.635194 6.622054 0.000008 0.000002 0.000001 0.000001 0.000003 -39.509209 1.377413 -2.641285 30.554633 8.774412 -4.451243 32.188154 4.212604 12.486075 7.861356 -0.000022 0.000021 -0.000001 0.000000 -0.000000 
42.272446 101.305191 55.329460 -19.824288 -246.167558 -352.070051 17.113881 -2.147496 -0.872830 3.205675 -0.525377 0.322539 3.204078 -0.547207 0.348892 -3.744588 2.194834 -2.618052 -4.519769 15.978329 -16.368533 -0.000000 0.000001 -0.000000 0.595394 -3.113208 -11.991869 -3.654404 -67.102517 -38.010115 0.001222 -84.149741 0.001261 33.112477 -34.555597 23.069659 -83.630209 52.195066 -25.663695 0.720971 3.243185 42.451248 -17.748071 6.355550 22.589659 -0.000000 -0.000000 -0.000004 3.763211 8.513371 -48.410991 0.568180 2.518738 -25.420303 2.079704 4.476689 -49.818211 -0.000003 0.000000 -0.000002 0.641174 5.056018 -35.962414 1.187417 3.537371 -37.101687 0.775831 2.915327 -29.798579 -0.000000 -0.000001 0.000003 -0.166067 2.926649 -22.001084 1.106966 3.428621 -35.777525 0.707056 2.791981 -28.417444 -0.000001 -0.000001 0.000009 4.746641 -8.666776 -17.332134 0.336471 1.958572 -19.493626 0.276199 1.779257 -17.645913 -0.000002 0.000003 0.000001 0.595614 7.290398 9.464171 24.934031 23.870640 29.156937 0.000007 95.888254 0.000034 -0.825185 10.625743 -5.513818 -89.008532 -41.152173 12.111975 -6.729936 -16.597045 -33.638893 -16.488895 -3.368134 -19.615574 0.000000 -0.000004 0.000001 3.603591 6.597016 22.738349 0.385920 -1.858000 23.466600 0.235463 -1.463535 18.278155 -0.000002 0.000003 0.000001 -0.105894 -2.962404 24.622892 1.085433 -2.990568 39.889797 0.689398 -2.440417 31.545399 0.000002 -0.000002 -0.000004 -0.133644 -3.475055 34.664241 1.127885 -3.040552 40.696446 0.777496 -2.578278 33.557208 0.000000 -0.000001 -0.000002 0.944550 -5.151635 46.711623 0.930443 -2.794935 36.819098 1.648229 -3.556276 49.721643 -0.000000 -0.000001 0.000000 -39.631090 9.934448 14.232457 51.171357 1.124484 -9.900439 -6.732671 2.153245 -12.147641 6.122033 -0.000008 -0.000013 -0.000000 -0.000001 0.000001 -35.027724 1.686764 -4.237086 21.001606 9.501054 -5.773510 36.793447 10.375770 13.206744 10.731463 -0.000010 -0.000008 -0.000002 0.000003 -0.000000 
45.037170 100.913734 55.696022 -20.687729 -239.409469 -351.739306 15.511594 -2.305968 -2.115698 2.852385 -0.559121 0.162617 2.851839 -0.585448 0.187585 -3.833564 2.306247 -2.817459 -4.717739 16.181831 -16.684774 0.000001 -0.000003 0.000002 0.595716 -3.115234 -12.108531 -5.840372 -65.469399 -38.453634 0.000897 -84.391598 0.000895 33.147953 -33.203267 20.262337 -86.314624 50.145388 -20.041981 -1.309552 5.866177 39.482967 -17.753723 4.418699 22.073457 -0.000002 0.000002 -0.000002 3.110512 7.837478 -48.533060 0.716798 2.809848 -28.616473 2.108311 4.500620 -50.183654 -0.000004 0.000001 -0.000000 0.508959 4.879010 -36.106747 1.286021 3.663830 -38.671664 0.853356 3.046532 -31.289114 -0.000002 -0.000003 0.000005 -0.104504 3.162877 -23.135837 1.180033 3.527614 -36.981957 0.758969 2.885736 -29.465320 -0.000000 -0.000001 0.000004 4.339625 -7.783569 -18.984145 0.374120 2.061772 -20.567168 0.278158 1.785453 -17.709152 -0.000000 -0.000002 -0.000001 0.615465 7.469555 8.909867 22.500479 24.264799 27.239817 -0.000238 98.426851 0.000265 -3.516522 10.588450 -6.154165 -87.384375 -40.436854 13.074341 -3.676671 -14.234737 -31.471268 -16.215947 -3.769788 -17.969398 0.000001 -0.000003 0.000002 3.938528 6.690561 18.785908 0.305586 -1.660823 20.850484 0.214789 -1.399414 17.450568 0.000001 0.000003 -0.000001 -0.150729 -2.569824 20.194006 0.836237 -2.664642 34.841584 0.535636 -2.170349 27.724390 -0.000002 -0.000000 -0.000004 0.012866 -3.471588 29.985934 0.827117 -2.651461 34.644407 0.568027 -2.230822 28.567679 -0.000001 -0.000002 -0.000000 1.455491 -5.660871 40.496506 0.646432 -2.369003 30.520687 1.306243 -3.236120 43.953640 0.000000 0.000001 0.000006 -41.333955 10.374941 14.819615 43.219747 3.212289 -11.425765 -10.302327 3.319929 -16.505615 3.578757 0.000008 0.000003 0.000001 -0.000001 -0.000003 -30.946781 1.515753 -5.632786 12.074016 9.685195 -7.274303 42.472869 15.025228 10.446263 8.481030 -0.204967 5.448934 -0.000000 0.000001 -0.000003 
